<svg width="20" height="21" viewBox="0 0 20 21" fill="none" xmlns="http://www.w3.org/2000/svg">
<path fill-rule="evenodd" clip-rule="evenodd" d="M18.7249 4.70099L10.4727 0.185748C10.0245 -0.0618976 9.48055 -0.0618976 9.03236 0.185748L0.780204 4.70287C0.300217 4.96549 0.00124201 5.46857 0 6.01571V14.9843C0.00124201 15.5314 0.300217 16.0345 0.780204 16.2971L9.03236 20.8143C9.48055 21.0619 10.0245 21.0619 10.4727 20.8143L18.7249 16.2971C19.2049 16.0345 19.5039 15.5314 19.5051 14.9843V6.01665C19.5049 5.4685 19.2058 4.9641 18.7249 4.70099ZM9.75255 1.49859L17.2864 5.62467L14.4947 7.1532L6.95995 3.02712L9.75255 1.49859ZM9.75255 9.75075L2.21871 5.62467L5.39766 3.88422L12.9315 8.0103L9.75255 9.75075ZM1.50039 6.93751L9.00235 11.043V19.0879L1.50039 14.9852V6.93751ZM18.0047 14.9815L10.5027 19.0879V11.0467L13.5035 9.40472V12.7515C13.5035 13.1659 13.8394 13.5017 14.2537 13.5017C14.6681 13.5017 15.0039 13.1659 15.0039 12.7515V8.58326L18.0047 6.93751V14.9806V14.9815Z" fill="#0D141C"/>
</svg>
