<svg width="18" height="17" viewBox="0 0 18 17" fill="none" xmlns="http://www.w3.org/2000/svg">
<path fill-rule="evenodd" clip-rule="evenodd" d="M18 8.25023C18 8.66443 17.6642 9.00021 17.25 9.00021H9.00021C8.58601 9.00021 8.25023 8.66443 8.25023 8.25023C8.25023 7.83603 8.58601 7.50025 9.00021 7.50025H17.25C17.6642 7.50025 18 7.83603 18 8.25023ZM9.00021 3.00036H17.25C17.6642 3.00036 18 2.66458 18 2.25037C18 1.83617 17.6642 1.50039 17.25 1.50039H9.00021C8.58601 1.50039 8.25023 1.83617 8.25023 2.25037C8.25023 2.66458 8.58601 3.00036 9.00021 3.00036ZM17.25 13.5001H9.00021C8.58601 13.5001 8.25023 13.8359 8.25023 14.2501C8.25023 14.6643 8.58601 15.0001 9.00021 15.0001H17.25C17.6642 15.0001 18 14.6643 18 14.2501C18 13.8359 17.6642 13.5001 17.25 13.5001ZM4.71969 0.219797L2.25037 2.69005L1.28102 1.71976C0.987973 1.42671 0.512846 1.42671 0.219797 1.71976C-0.0732521 2.01281 -0.0732521 2.48794 0.219797 2.78099L1.71976 4.28095C1.86043 4.42178 2.05132 4.50091 2.25037 4.50091C2.44943 4.50091 2.64031 4.42178 2.78099 4.28095L5.78092 1.28102C6.07396 0.987973 6.07396 0.512846 5.78092 0.219797C5.48787 -0.0732521 5.01274 -0.0732521 4.71969 0.219797ZM4.71969 6.21965L2.25037 8.68991L1.28102 7.71962C1.09145 7.53005 0.815149 7.45601 0.556192 7.5254C0.297235 7.59479 0.0949665 7.79706 0.0255793 8.05601C-0.0438079 8.31497 0.0302274 8.59127 0.219797 8.78084L1.71976 10.2808C1.86043 10.4216 2.05132 10.5008 2.25037 10.5008C2.44943 10.5008 2.64031 10.4216 2.78099 10.2808L5.78092 7.28088C6.07396 6.98783 6.07396 6.5127 5.78092 6.21965C5.48787 5.9266 5.01274 5.9266 4.71969 6.21965ZM4.71969 12.2195L2.25037 14.6898L1.28102 13.7195C1.09145 13.5299 0.815149 13.4559 0.556192 13.5253C0.297235 13.5946 0.0949665 13.7969 0.0255793 14.0559C-0.0438079 14.3148 0.0302274 14.5911 0.219797 14.7807L1.71976 16.2807C1.86043 16.4215 2.05132 16.5006 2.25037 16.5006C2.44943 16.5006 2.64031 16.4215 2.78099 16.2807L5.78092 13.2807C6.07396 12.9877 6.07396 12.5126 5.78092 12.2195C5.48787 11.9265 5.01274 11.9265 4.71969 12.2195Z" fill="#0D141C"/>
</svg>
