<svg width="20" height="20" viewBox="0 0 20 20" fill="none" xmlns="http://www.w3.org/2000/svg">
<path fill-rule="evenodd" clip-rule="evenodd" d="M11.1539 9.99628C11.1539 10.6335 10.6373 11.1501 10.0001 11.1501C9.36281 11.1501 8.84622 10.6335 8.84622 9.99628C8.84622 9.35903 9.36281 8.84244 10.0001 8.84244C10.6373 8.84244 11.1539 9.35903 11.1539 9.99628ZM5.76932 8.84244C5.13207 8.84244 4.61548 9.35903 4.61548 9.99628C4.61548 10.6335 5.13207 11.1501 5.76932 11.1501C6.40657 11.1501 6.92316 10.6335 6.92316 9.99628C6.92316 9.35903 6.40657 8.84244 5.76932 8.84244ZM14.2308 8.84244C13.5936 8.84244 13.077 9.35903 13.077 9.99628C13.077 10.6335 13.5936 11.1501 14.2308 11.1501C14.8681 11.1501 15.3846 10.6335 15.3846 9.99628C15.3846 9.35903 14.8681 8.84244 14.2308 8.84244ZM20 9.99628C20.0008 13.5081 18.1593 16.7629 15.1488 18.5711C12.1382 20.3792 8.39985 20.4756 5.30009 18.8251L2.02607 19.9164C1.47321 20.1008 0.86362 19.9569 0.451518 19.5448C0.0394154 19.1327 -0.104443 18.5231 0.0799323 17.9703L1.17127 14.6962C-0.782701 11.0225 -0.257574 6.52278 2.48982 3.39773C5.23721 0.272682 9.63265 -0.824494 13.5264 0.642818C17.4201 2.11013 19.9983 5.83526 20 9.99628ZM18.4615 9.99628C18.4605 6.4389 16.2346 3.26204 12.8913 2.04649C9.54808 0.830941 5.80155 1.83631 3.51601 4.56234C1.23046 7.28836 0.894043 11.1528 2.67415 14.2328C2.78442 14.4236 2.80752 14.6526 2.73761 14.8616L1.53858 18.4578L5.13471 17.2587C5.21304 17.232 5.29522 17.2184 5.37798 17.2183C5.51308 17.2186 5.64573 17.2544 5.76259 17.3222C8.38069 18.837 11.6083 18.839 14.2283 17.3275C16.8483 15.8161 18.4622 13.021 18.4615 9.99628Z" fill="#0D141C"/>
</svg>
