<svg width="24" height="16" viewBox="0 0 24 16" fill="none" xmlns="http://www.w3.org/2000/svg">
<path fill-rule="evenodd" clip-rule="evenodd" d="M10.9776 10.4874C13.0775 9.08938 14.0144 6.48126 13.2842 4.06652C12.5539 1.65178 10.3287 -2.42586e-05 7.8059 -2.42586e-05C5.28315 -2.42586e-05 3.05791 1.65178 2.32763 4.06652C1.59735 6.48126 2.53428 9.08938 4.63423 10.4874C2.78416 11.1693 1.20416 12.4311 0.129984 14.0845C-0.0236607 14.3129 -0.0424308 14.6063 0.0808629 14.8523C0.204157 15.0984 0.450408 15.259 0.725304 15.2727C1.0002 15.2863 1.26114 15.1509 1.40819 14.9182C2.81595 12.753 5.2233 11.4468 7.8059 11.4468C10.3885 11.4468 12.7959 12.753 14.2036 14.9182C14.4365 15.2643 14.9042 15.3593 15.2536 15.1314C15.6031 14.9035 15.7047 14.4372 15.4818 14.0845C14.4076 12.4311 12.8276 11.1693 10.9776 10.4874ZM3.6088 5.72561C3.6088 3.40762 5.48791 1.52851 7.8059 1.52851C10.1239 1.52851 12.003 3.40762 12.003 5.72561C12.003 8.0436 10.1239 9.92271 7.8059 9.92271C5.489 9.92008 3.61143 8.04251 3.6088 5.72561ZM23.6538 15.1405C23.3008 15.3706 22.828 15.2711 22.5978 14.9182C21.1916 12.7516 18.783 11.4455 16.2001 11.4489C15.7786 11.4489 15.437 11.1073 15.437 10.6858C15.437 10.2644 15.7786 9.92271 16.2001 9.92271C17.8904 9.92111 19.4149 8.90565 20.0676 7.34643C20.7204 5.78721 20.3741 3.98857 19.1891 2.78318C18.004 1.5778 16.2115 1.20094 14.6414 1.82708C14.3866 1.93725 14.092 1.90031 13.8723 1.73063C13.6525 1.56095 13.5422 1.2853 13.5844 1.01087C13.6265 0.736444 13.8143 0.506541 14.0748 0.410561C16.7962 -0.674765 19.8978 0.470344 21.261 3.06371C22.6242 5.65708 21.8088 8.86117 19.3718 10.4874C21.2218 11.1693 22.8018 12.4311 23.876 14.0845C24.1062 14.4375 24.0067 14.9102 23.6538 15.1405Z" fill="#0D141C"/>
</svg>
