<svg width="21" height="19" viewBox="0 0 21 19" fill="none" xmlns="http://www.w3.org/2000/svg">
<path fill-rule="evenodd" clip-rule="evenodd" d="M20.519 9.1184C20.5163 6.60119 18.4764 4.56124 15.9592 4.55863H12.1784C11.9019 4.54248 7.08474 4.20334 2.49742 0.356038C2.04516 -0.023793 1.41382 -0.107246 0.878403 0.142032C0.342987 0.391309 0.000449349 0.928178 0 1.51878V16.718C8.04479e-05 17.3088 0.342479 17.846 0.877973 18.0955C1.41347 18.345 2.04503 18.2616 2.49742 17.8817C6.08539 14.8723 9.81205 14.0097 11.3994 13.7684V16.7817C11.3988 17.2903 11.6526 17.7656 12.0758 18.0479L13.1207 18.7443C13.5306 19.0178 14.0476 19.0757 14.5078 18.8996C14.968 18.7235 15.3142 18.3352 15.4367 17.858L16.5548 13.644C18.8236 13.3421 20.5185 11.4072 20.519 9.1184ZM1.51992 16.7114V1.51878C5.58667 4.93006 9.74936 5.79356 11.3994 6.00635V12.2266C9.75126 12.4432 5.58952 13.3048 1.51992 16.7114ZM13.9643 17.4713V17.4818L12.9193 16.7855V13.6782H14.9712L13.9643 17.4713ZM15.9592 12.1582H12.9193V6.07855H15.9592C17.6381 6.07855 18.999 7.43953 18.999 9.1184C18.999 10.7973 17.6381 12.1582 15.9592 12.1582Z" fill="#0D141C"/>
</svg>
